<svg width="51" height="51" viewBox="0 0 51 51" fill="none" xmlns="http://www.w3.org/2000/svg">
<path d="M48.1208 0.0834961H2.87909C2.13758 0.0834961 1.42645 0.378057 0.902133 0.902377C0.377812 1.4267 0.083252 2.13783 0.083252 2.87933V48.121C0.083252 48.4882 0.155569 48.8517 0.296072 49.1909C0.436576 49.5301 0.642516 49.8383 0.902133 50.098C1.16175 50.3576 1.46996 50.5635 1.80917 50.704C2.14837 50.8445 2.51193 50.9168 2.87909 50.9168H27.2283V31.2189H20.6199V23.5939H27.2283V17.8752C27.0914 16.5325 27.2499 15.1762 27.6927 13.9014C28.1354 12.6265 28.8518 11.4639 29.7914 10.4952C30.7311 9.52649 31.8713 8.77508 33.1321 8.29368C34.3929 7.81229 35.7438 7.61255 37.0899 7.7085C39.0682 7.69632 41.0455 7.79816 43.012 8.0135V14.876H38.9708C35.7682 14.876 35.1583 16.401 35.1583 18.6122V23.5177H42.7833L41.792 31.1427H35.1583V50.9168H48.1208C48.4879 50.9168 48.8515 50.8445 49.1907 50.704C49.5299 50.5635 49.8381 50.3576 50.0977 50.098C50.3573 49.8383 50.5633 49.5301 50.7038 49.1909C50.8443 48.8517 50.9166 48.4882 50.9166 48.121V2.87933C50.9166 2.51218 50.8443 2.14862 50.7038 1.80941C50.5633 1.4702 50.3573 1.16199 50.0977 0.902377C49.8381 0.64276 49.5299 0.43682 49.1907 0.296316C48.8515 0.155813 48.4879 0.0834961 48.1208 0.0834961Z" fill="white"/>
</svg>
