<svg width="49" height="53" viewBox="0 0 49 53" fill="none" xmlns="http://www.w3.org/2000/svg">
<path d="M20.4163 46.1491C20.4162 45.8021 20.3389 45.4594 20.1898 45.1452C20.0406 44.831 19.8234 44.5531 19.5533 44.3311C19.2833 44.109 18.9671 43.9484 18.6272 43.8605C18.2873 43.7726 17.932 43.7596 17.5864 43.8224C14.45 44.3908 10.4901 44.4763 9.43722 41.5559C8.51914 39.2941 6.99841 37.3198 5.03624 35.8422C4.89624 35.767 4.76281 35.6805 4.63733 35.5834C4.46561 35.1361 4.16059 34.7507 3.76252 34.4781C3.36445 34.2054 2.89203 34.0583 2.40758 34.0562H2.39589C1.76242 34.056 1.15466 34.3036 0.705641 34.7449C0.256617 35.1861 0.00290416 35.785 3.35922e-05 36.4106C-0.00933421 38.3398 1.94307 39.5759 2.73514 39.9941C3.66915 40.9208 4.41979 42.0115 4.94851 43.2102C5.82122 45.6316 8.35745 49.3052 15.648 48.8316C15.6504 48.9148 15.6526 48.9934 15.6538 49.065L15.6643 49.6981C15.6643 50.3255 15.9168 50.9273 16.3661 51.371C16.8154 51.8147 17.4248 52.064 18.0602 52.064C18.6956 52.064 19.305 51.8147 19.7543 51.371C20.2036 50.9273 20.456 50.3255 20.456 49.6981L20.4444 48.9448C20.4327 48.4965 20.4163 47.8472 20.4163 46.1491ZM45.9729 10.3624C46.0489 10.0666 46.1238 9.73854 46.1893 9.36887C46.5768 6.73227 46.239 4.04129 45.2113 1.57794C45.0816 1.2568 44.8824 0.96755 44.6276 0.730476C44.3727 0.493402 44.0685 0.314238 43.7361 0.205545C42.8832 -0.0786477 39.7341 -0.637782 33.7117 3.16293C28.7056 1.9996 23.4945 1.9996 18.4884 3.16293C12.4905 -0.582112 9.35767 -0.0739159 8.51304 0.194094C8.1725 0.298384 7.85991 0.476599 7.59818 0.715677C7.33644 0.954755 7.1322 1.24864 7.00041 1.57578C5.95175 4.08643 5.61762 6.8323 6.03412 9.5168C6.09262 9.81948 6.15578 10.0991 6.22131 10.3555C4.23651 12.9661 3.17931 16.1505 3.21362 19.4148C3.20715 20.1431 3.24113 20.8712 3.3154 21.5958C4.11561 32.485 11.3032 35.7543 16.3113 36.8772C16.2072 37.173 16.1124 37.4895 16.0282 37.8245C15.878 38.4333 15.9785 39.0759 16.3075 39.6116C16.6365 40.1474 17.1673 40.5323 17.7833 40.6822C18.3993 40.8321 19.0504 40.7346 19.5938 40.4111C20.1371 40.0876 20.5284 39.5646 20.6818 38.9566C20.8343 38.1683 21.225 37.4441 21.8026 36.8795C22.1518 36.5776 22.4046 36.182 22.5303 35.7408C22.656 35.2996 22.6492 34.8318 22.5106 34.3944C22.372 33.957 22.1077 33.5687 21.7498 33.2769C21.3919 32.9851 20.9559 32.8023 20.4947 32.7507C12.2191 31.8173 8.62651 28.488 8.08605 21.1615C8.02618 20.5812 7.99923 19.9981 8.00533 19.4148C7.96689 17.0883 8.74524 14.8204 10.2082 12.9964C10.3551 12.8062 10.5117 12.6234 10.6773 12.4488C10.9706 12.1247 11.1678 11.727 11.2473 11.2994C11.3267 10.8719 11.2854 10.431 11.1277 10.0251C10.966 9.59814 10.8416 9.15833 10.7557 8.71046C10.5605 7.43693 10.6245 6.13775 10.944 4.88895C13.0263 5.46972 14.9861 6.41506 16.73 7.67996C17.0184 7.86965 17.3447 7.99588 17.6868 8.0501C18.0289 8.10431 18.3789 8.08525 18.7129 7.9942C23.5552 6.6965 28.6603 6.69732 33.5022 7.99657C33.838 8.08752 34.1898 8.10549 34.5333 8.04925C34.8768 7.99301 35.2039 7.8639 35.4921 7.67081C37.2278 6.40064 39.1794 5.44685 41.2548 4.85436C41.5728 6.07317 41.644 7.34201 41.4642 8.58805C41.3774 9.07906 41.2418 9.56043 41.0594 10.0252C40.9017 10.431 40.8603 10.8719 40.9398 11.2995C41.0193 11.727 41.2165 12.1247 41.5098 12.4488C41.6946 12.6544 41.8795 12.8763 42.0456 13.0842C43.4982 14.8774 44.2634 17.1192 44.2064 19.4148C44.2107 20.029 44.1807 20.643 44.1163 21.2539C43.5887 28.4833 39.9821 31.815 31.6679 32.7507C31.2066 32.8026 30.7705 32.9857 30.4126 33.2778C30.0548 33.5699 29.7906 33.9584 29.6521 34.396C29.5137 34.8337 29.507 35.3016 29.6329 35.7429C29.7588 36.1842 30.0118 36.5799 30.3612 36.8818C30.9569 37.4615 31.3485 38.2147 31.4784 39.0305C31.6403 39.6639 31.7147 40.316 31.6995 40.969V46.4911C31.6761 48.0228 31.6761 49.1711 31.6761 49.6979C31.6761 50.3254 31.9285 50.9272 32.3778 51.3709C32.8271 51.8146 33.4365 52.0638 34.0719 52.0638C34.7073 52.0638 35.3167 51.8146 35.766 51.3709C36.2154 50.9272 36.4678 50.3254 36.4678 49.6979C36.4678 49.185 36.4678 48.0598 36.4912 46.528V40.969C36.5105 39.9229 36.3857 38.879 36.1203 37.8661C36.0444 37.5336 35.9515 37.2051 35.8419 36.8818C39.4866 36.2839 42.7982 34.4283 45.1872 31.6452C47.5762 28.8621 48.8877 25.3321 48.8881 21.6837C48.967 20.93 49.0038 20.1725 48.9981 19.4148C49.0513 16.1469 47.9853 12.9571 45.9729 10.3624L45.9729 10.3624Z" fill="white"/>
</svg>
