<svg width="51" height="51" viewBox="0 0 51 51" fill="none" xmlns="http://www.w3.org/2000/svg">
<path d="M39.0724 8.87766C38.4692 8.87766 37.8795 9.05654 37.3779 9.39168C36.8764 9.72682 36.4854 10.2032 36.2546 10.7605C36.0237 11.3178 35.9633 11.931 36.081 12.5227C36.1987 13.1143 36.4892 13.6578 36.9158 14.0843C37.3423 14.5109 37.8858 14.8014 38.4774 14.9191C39.069 15.0367 39.6823 14.9763 40.2396 14.7455C40.7969 14.5147 41.2733 14.1237 41.6084 13.6222C41.9435 13.1206 42.1224 12.5309 42.1224 11.9277C42.1224 11.1188 41.8011 10.343 41.2291 9.77099C40.6571 9.199 39.8813 8.87766 39.0724 8.87766ZM50.7641 15.0285C50.7147 12.9197 50.3197 10.8332 49.5949 8.85225C48.9487 7.15729 47.9428 5.6225 46.6466 4.3535C45.388 3.0507 43.8496 2.0512 42.1478 1.43058C40.1721 0.683738 38.0833 0.279738 35.9716 0.235996C33.2774 0.083496 32.4133 0.0834961 25.4999 0.0834961C18.5866 0.0834961 17.7224 0.083496 15.0283 0.235996C12.9165 0.279738 10.8278 0.683738 8.852 1.43058C7.15335 2.05748 5.61629 3.05613 4.35325 4.3535C3.05046 5.61207 2.05095 7.15045 1.43034 8.85225C0.683494 10.828 0.279494 12.9168 0.235752 15.0285C0.0832518 17.7227 0.083252 18.5868 0.083252 25.5002C0.083252 32.4135 0.0832518 33.2777 0.235752 35.9718C0.279494 38.0836 0.683494 40.1723 1.43034 42.1481C2.05095 43.8499 3.05046 45.3883 4.35325 46.6468C5.61629 47.9442 7.15335 48.9429 8.852 49.5698C10.8278 50.3166 12.9165 50.7206 15.0283 50.7643C17.7224 50.9168 18.5866 50.9168 25.4999 50.9168C32.4133 50.9168 33.2774 50.9168 35.9716 50.7643C38.0833 50.7206 40.1721 50.3166 42.1478 49.5698C43.8496 48.9491 45.388 47.9496 46.6466 46.6468C47.9485 45.3826 48.9553 43.8464 49.5949 42.1481C50.3197 40.1671 50.7147 38.0807 50.7641 35.9718C50.7641 33.2777 50.9166 32.4135 50.9166 25.5002C50.9166 18.5868 50.9166 17.7227 50.7641 15.0285ZM46.1891 35.6668C46.1706 37.2802 45.8784 38.8787 45.3249 40.3943C44.9191 41.5005 44.2673 42.4999 43.4187 43.3173C42.5943 44.1573 41.5969 44.8078 40.4958 45.2235C38.9802 45.777 37.3816 46.0692 35.7683 46.0877C33.2266 46.2148 32.2862 46.2402 25.6016 46.2402C18.917 46.2402 17.9766 46.2402 15.4349 46.0877C13.7597 46.119 12.0916 45.8611 10.5041 45.3252C9.45128 44.8882 8.49962 44.2393 7.70825 43.4189C6.86465 42.6024 6.22098 41.6021 5.82742 40.496C5.20689 38.9587 4.86271 37.3239 4.81075 35.6668C4.81075 33.1252 4.65825 32.1848 4.65825 25.5002C4.65825 18.8156 4.65825 17.8752 4.81075 15.3335C4.82215 13.6841 5.12325 12.0495 5.70034 10.5043C6.14779 9.43152 6.83459 8.47521 7.70825 7.7085C8.48045 6.83459 9.43478 6.14053 10.5041 5.67516C12.0534 5.11611 13.6862 4.82391 15.3333 4.811C17.8749 4.811 18.8153 4.6585 25.4999 4.6585C32.1845 4.6585 33.1249 4.6585 35.6666 4.811C37.28 4.8295 38.8785 5.12171 40.3941 5.67516C41.5491 6.10382 42.5858 6.80073 43.4187 7.7085C44.2516 8.48924 44.9024 9.44378 45.3249 10.5043C45.8898 12.052 46.1822 13.6859 46.1891 15.3335C46.3162 17.8752 46.3416 18.8156 46.3416 25.5002C46.3416 32.1848 46.3162 33.1252 46.1891 35.6668ZM25.4999 12.4614C22.9222 12.4664 20.4038 13.2354 18.2629 14.6712C16.1221 16.107 14.4548 18.1451 13.4718 20.528C12.4888 22.911 12.2343 25.5319 12.7402 28.0594C13.2462 30.587 14.49 32.9079 16.3145 34.7289C18.139 36.5499 20.4624 37.7892 22.9909 38.2902C25.5195 38.7913 28.1399 38.5316 30.5209 37.544C32.9019 36.5563 34.9368 34.8851 36.3684 32.7415C37.8 30.5978 38.5641 28.0779 38.5641 25.5002C38.5675 23.7848 38.2317 22.0857 37.576 20.5006C36.9203 18.9155 35.9578 17.4756 34.7436 16.2639C33.5295 15.0521 32.0878 14.0923 30.5014 13.4398C28.915 12.7872 27.2153 12.4547 25.4999 12.4614ZM25.4999 33.9639C23.826 33.9639 22.1896 33.4675 20.7977 32.5375C19.4059 31.6075 18.321 30.2857 17.6804 28.7391C17.0398 27.1926 16.8722 25.4908 17.1988 23.849C17.5254 22.2072 18.3315 20.6991 19.5151 19.5154C20.6988 18.3317 22.2069 17.5256 23.8487 17.199C25.4905 16.8725 27.1923 17.0401 28.7389 17.6807C30.2854 18.3213 31.6073 19.4061 32.5373 20.798C33.4673 22.1898 33.9637 23.8262 33.9637 25.5002C33.9637 26.6116 33.7448 27.7122 33.3194 28.7391C32.8941 29.766 32.2706 30.699 31.4847 31.4849C30.6988 32.2709 29.7657 32.8943 28.7389 33.3197C27.712 33.745 26.6114 33.9639 25.4999 33.9639Z" fill="white"/>
</svg>
