<svg width="51" height="51" viewBox="0 0 51 51" fill="none" xmlns="http://www.w3.org/2000/svg">
<path d="M47.0279 0.0828749H3.97209C3.4881 0.0761532 3.00753 0.164837 2.55782 0.343863C2.10811 0.522888 1.69807 0.788748 1.35112 1.12626C1.00416 1.46377 0.727097 1.86632 0.535736 2.31092C0.344375 2.75553 0.24247 3.23347 0.23584 3.71746V47.2816C0.24247 47.7656 0.344375 48.2436 0.535736 48.6882C0.727097 49.1328 1.00416 49.5353 1.35112 49.8728C1.69807 50.2103 2.10811 50.4762 2.55782 50.6552C3.00753 50.8342 3.4881 50.9229 3.97209 50.9162H47.0279C47.5119 50.9229 47.9925 50.8342 48.4422 50.6552C48.8919 50.4762 49.3019 50.2103 49.6489 49.8728C49.9958 49.5353 50.2729 49.1328 50.4643 48.6882C50.6556 48.2436 50.7575 47.7656 50.7642 47.2816V3.71746C50.7575 3.23347 50.6556 2.75553 50.4643 2.31092C50.2729 1.86632 49.9958 1.46377 49.6489 1.12626C49.3019 0.788748 48.8919 0.522888 48.4422 0.343863C47.9925 0.164837 47.5119 0.0761532 47.0279 0.0828749ZM15.5621 42.6304H7.93709V19.7554H15.5621V42.6304ZM11.7496 16.5529C10.698 16.5529 9.68949 16.1351 8.94591 15.3916C8.20233 14.648 7.78459 13.6395 7.78459 12.5879C7.78459 11.5363 8.20233 10.5278 8.94591 9.7842C9.68949 9.04062 10.698 8.62288 11.7496 8.62288C12.308 8.55955 12.8735 8.61488 13.409 8.78524C13.9445 8.95561 14.438 9.23717 14.8572 9.61149C15.2763 9.9858 15.6117 10.4444 15.8413 10.9573C16.071 11.4703 16.1897 12.0259 16.1897 12.5879C16.1897 13.1498 16.071 13.7055 15.8413 14.2184C15.6117 14.7313 15.2763 15.1899 14.8572 15.5643C14.438 15.9386 13.9445 16.2201 13.409 16.3905C12.8735 16.5609 12.308 16.6162 11.7496 16.5529ZM43.0629 42.6304H35.4379V30.3541C35.4379 27.2787 34.345 25.2708 31.5746 25.2708C30.7172 25.2771 29.8823 25.546 29.1825 26.0414C28.4826 26.5367 27.9514 27.2347 27.6604 28.0412C27.4615 28.6386 27.3753 29.2677 27.4063 29.8966V42.605H19.7813C19.7813 42.605 19.7813 21.8141 19.7813 19.73H27.4063V22.9579C28.0989 21.7559 29.1064 20.7657 30.3201 20.0939C31.5339 19.4221 32.9079 19.0942 34.2942 19.1454C39.3775 19.1454 43.0629 22.4241 43.0629 29.4645V42.6304Z" fill="white"/>
</svg>
